<svg width="104" height="54" viewBox="0 0 104 54" fill="none" xmlns="http://www.w3.org/2000/svg">
<path d="M12.0556 24.54L8.0556 26.642L12.0556 28.744L52.0895 49.782L53.1941 50.3625L54.2987 49.782L94.3326 28.744L98.3326 26.642L94.3326 24.54L54.2987 3.50201L53.1941 2.92154L52.0895 3.50201L12.0556 24.54Z" fill="#120C3C" stroke="#120C3C" stroke-width="4.74911"/>
<path d="M13.1602 26.642L53.1941 5.604L93.228 26.642L53.1941 47.68L13.1602 26.642Z" fill="white" stroke="#A5BF14" stroke-width="3.32438"/>
<path d="M40.7306 29.4442V24.8757H39.7012V23.8914H42.7894V24.8757H41.76V29.4442H40.7306Z" fill="#120C3C"/>
<path d="M43.374 29.4442V23.8914H44.4034V26.2883L46.1241 23.8914H47.3639L45.2751 26.6189L47.3639 29.4442H46.1241L44.4034 27.0022V29.4442H43.374Z" fill="#120C3C"/>
<path d="M52.3647 24.9433V25.9051H51.3653V24.8907C51.3653 24.2671 51.741 23.8914 52.3647 23.8914V24.3948C52.0491 24.4549 51.9214 24.5752 51.9214 24.8081V24.9433H52.3647ZM50.937 24.9433V25.9051H49.9377V24.8907C49.9377 24.2671 50.3134 23.8914 50.937 23.8914V24.3948C50.6215 24.4549 50.4937 24.5752 50.4937 24.8081V24.9433H50.937Z" fill="#120C3C"/>
<path d="M52.5761 30.5337V28.4599H53.3125L55.2135 23.8914H56.04L57.9411 28.4599H58.6774V30.5337H57.9561L57.7457 29.4442H53.5078L53.2975 30.5337H52.5761ZM54.3795 28.4599H56.8741L55.6268 25.4167L54.3795 28.4599Z" fill="#120C3C"/>
<path d="M59.052 26.6715C59.052 25.0485 60.3293 23.7937 61.9899 23.7937C63.5678 23.7937 64.8377 25.0786 64.8377 26.664C64.8377 28.287 63.5904 29.5419 61.9749 29.5419C60.3444 29.5419 59.052 28.2795 59.052 26.6715ZM60.0889 26.664C60.0889 27.7235 60.9154 28.55 61.9674 28.55C63.0193 28.55 63.8008 27.7536 63.8008 26.6791C63.8008 25.5895 63.0043 24.7855 61.9223 24.7855C60.9079 24.7855 60.0889 25.6196 60.0889 26.664Z" fill="#120C3C"/>
<path d="M65.6402 29.4442V23.8914H67.0528L68.5481 28.0992L70.0283 23.8914H71.4409V29.4442H70.4115V25.2815L68.9613 29.4442H68.1198L66.6696 25.2815V29.4442H65.6402Z" fill="#120C3C"/>
<path d="M72.6189 24.8532V23.8914H73.6183V24.9058C73.6183 25.5294 73.2426 25.9051 72.6189 25.9051V25.4017C72.9345 25.3416 73.0623 25.2214 73.0623 24.9884V24.8532H72.6189ZM74.0466 24.8532V23.8914H75.046V24.9058C75.046 25.5294 74.6703 25.9051 74.0466 25.9051V25.4017C74.3622 25.3416 74.4899 25.2214 74.4899 24.9884V24.8532H74.0466Z" fill="#120C3C"/>
<path fill-rule="evenodd" clip-rule="evenodd" d="M47.4078 22.8205C46.0212 20.0466 43.154 18.1418 39.8419 18.1418C35.1733 18.1418 31.3887 21.9265 31.3887 26.5951C31.3887 31.2637 35.1733 35.0484 39.8419 35.0484C43.1547 35.0484 46.0224 33.1428 47.4086 30.3679H43.3706C42.4472 31.232 41.2063 31.7609 39.8419 31.7609C36.9889 31.7609 34.6761 29.4481 34.6761 26.5951C34.6761 23.7421 36.9889 21.4293 39.8419 21.4293C41.2054 21.4293 42.4455 21.9575 43.3688 22.8205H47.4078Z" fill="#5C8409"/>
</svg>
